<svg width="85" height="88" viewBox="0 0 85 88" fill="none" xmlns="http://www.w3.org/2000/svg">
<path d="M84.2636 35.9273C82.2055 36.2794 80.12 36.4773 78.0956 37.0241C69.094 39.4579 61.461 44.856 55.3789 53.5591C53.0969 56.8236 51.4355 60.583 49.7507 64.3358C48.6683 66.7437 47.4428 69.0509 45.6851 70.8097C43.6452 72.8508 41.6832 72.6853 40.0908 70.112C39.1605 68.5882 38.3829 66.9286 37.775 65.1698C34.7047 56.3904 30.2371 48.9853 24.0989 43.1945C18.4604 37.8743 12.1298 34.5514 5.1551 33.1544C3.49633 32.8218 1.81154 32.6871 0.144955 32.4616C-0.320802 36.5325 0.30758 45.4612 2.44122 52.7511C5.51808 63.2682 10.6804 71.8254 18.0051 78.2943C32.6699 91.2387 52.1901 91.2404 67.0111 78.2684C74.2616 71.9227 79.3979 63.4857 82.4513 53.1081C84.0774 47.5864 84.9392 41.7604 85 35.8786C84.693 35.8965 84.477 35.8916 84.2636 35.9273Z" fill="#F5C3C7"/>
<path d="M40.5566 49.5759C41.1798 50.4325 41.8133 51.2779 42.5003 52.206C44.9722 49.3601 47.4324 46.6618 49.7755 43.8176C56.5185 35.6304 57.4357 22.6989 51.9143 13.1862C50.6758 11.0509 49.151 9.17044 47.7303 7.20558C45.9883 4.79939 44.2176 2.42728 42.4274 0C42.2245 0.217417 42.0436 0.404007 41.8706 0.601953C39.7023 3.08981 37.5313 5.57766 35.3578 8.06551C28.2895 16.1781 27.3645 30.4124 33.4206 39.7045C35.6583 43.1296 38.1679 46.2887 40.5566 49.5759Z" fill="#F5C3C7"/>
</svg>
